<svg xmlns="http://www.w3.org/2000/svg" xmlns:xlink="http://www.w3.org/1999/xlink" width="53" height="53" viewBox="0 0 53 53">
  <defs>
    <style>
      .cls-1 {
        fill: #9b9b9b;
      }

      .cls-2 {
        stroke: #fff;
        stroke-miterlimit: 10;
        fill: url(#linear-gradient);
      }

      .cls-3 {
        fill: rgba(0,0,0,0);
      }

      .cls-4 {
        fill: rgba(255,0,0,0);
      }

      .cls-5 {
        clip-path: url(#clip-path);
      }

      .cls-6 {
        fill: #fff;
      }

      .cls-7 {
        filter: url(#Oval_4);
      }
    </style>
    <linearGradient id="linear-gradient" x1="1" x2="0" y2="1" gradientUnits="objectBoundingBox">
      <stop offset="0" stop-color="#ff8960"/>
      <stop offset="1" stop-color="#ff62a5"/>
    </linearGradient>
    <filter id="Oval_4" x="0" y="0" width="53" height="53" filterUnits="userSpaceOnUse">
      <feOffset dy="2" input="SourceAlpha"/>
      <feGaussianBlur stdDeviation="2" result="blur"/>
      <feFlood flood-opacity="0.129"/>
      <feComposite operator="in" in2="blur"/>
      <feComposite in="SourceGraphic"/>
    </filter>
    <clipPath id="clip-path">
      <path id="hot_icon" class="cls-1" d="M0,14.294a10.368,10.368,0,0,1,3.788-8c.489-.344.853,0,.707.251-1.587,3.848-.43,7.623,2.261,8.384A13.3,13.3,0,0,1,5.842,8.5,12.717,12.717,0,0,1,10.093.284.831.831,0,0,1,10.668,0h0a.237.237,0,0,1,.185.35,11.107,11.107,0,0,0-.364,2.043,12.91,12.91,0,0,0,1.56,7.716c1.891,0,2.691-2.268,2.9-3.841,0-.377.271-.628.82-.192a10.253,10.253,0,0,1,4.066,8.185A9.921,9.921,0,1,1,0,14.294Z" transform="translate(0)"/>
    </clipPath>
  </defs>
  <g id="Group" transform="translate(6.5 4.5)">
    <g class="cls-7" transform="matrix(1, 0, 0, 1, -6.5, -4.5)">
      <circle id="Oval_4-2" data-name="Oval 4" class="cls-2" cx="20" cy="20" r="20" transform="translate(6.5 4.5)"/>
    </g>
    <g id="icons_plus_copy" data-name="icons/plus copy" transform="translate(5.625 4.375)">
      <rect id="icons_plus_copy_background" data-name="icons/plus copy background" class="cls-3" width="29.375" height="29.375"/>
      <rect id="Rectangle" class="cls-4" width="29.375" height="29.375"/>
      <path id="hot_icon-2" data-name="hot_icon" class="cls-1" d="M0,14.294a10.368,10.368,0,0,1,3.788-8c.489-.344.853,0,.707.251-1.587,3.848-.43,7.623,2.261,8.384A13.3,13.3,0,0,1,5.842,8.5,12.717,12.717,0,0,1,10.093.284.831.831,0,0,1,10.668,0h0a.237.237,0,0,1,.185.35,11.107,11.107,0,0,0-.364,2.043,12.91,12.91,0,0,0,1.56,7.716c1.891,0,2.691-2.268,2.9-3.841,0-.377.271-.628.82-.192a10.253,10.253,0,0,1,4.066,8.185A9.921,9.921,0,1,1,0,14.294Z" transform="translate(4.896 2.938)"/>
      <g class="cls-5" transform="translate(4.896 2.938)">
        <g id="color_primary" data-name="color/primary" transform="translate(-4.896 -2.938)">
          <rect id="color_primary_background" data-name="color/primary background" class="cls-3" width="29.375" height="29.375"/>
          <rect id="color_White" data-name="color/White" class="cls-6" width="29.375" height="29.375"/>
          <rect id="color_White-2" data-name="color/White" class="cls-6" width="29.375" height="29.375"/>
        </g>
      </g>
    </g>
  </g>
</svg>
