<svg id="btn_filter" xmlns="http://www.w3.org/2000/svg" xmlns:xlink="http://www.w3.org/1999/xlink" width="40" height="40" viewBox="0 0 40 40">
  <defs>
    <clipPath id="clip-path">
      <circle id="Oval" cx="20" cy="20" r="20" fill="rgba(255,255,255,0.2)"/>
    </clipPath>
  </defs>
  <circle id="Oval-2" data-name="Oval" cx="20" cy="20" r="20" fill="rgba(255,255,255,0.2)"/>
  <path id="Filters" d="M5.5,15a1.5,1.5,0,1,1,0-3h9a1.5,1.5,0,0,1,0,3Zm-2-6a1.5,1.5,0,1,1,0-3h13a1.5,1.5,0,1,1,0,3Zm-2-6a1.5,1.5,0,1,1,0-3h17a1.5,1.5,0,0,1,0,3Z" transform="translate(10 13)" fill="#fff"/>
</svg>
