<svg xmlns="http://www.w3.org/2000/svg" xmlns:xlink="http://www.w3.org/1999/xlink" width="22.007" height="19.069" viewBox="0 0 22.007 19.069">
  <defs>
    <style>
      .cls-1 {
        fill: #dc0d0d;
      }

      .cls-2 {
        clip-path: url(#clip-path);
      }

      .cls-3 {
        fill: #fff;
      }

      .cls-4 {
        fill: rgba(0,0,0,0);
      }

      .cls-5 {
        fill: url(#linear-gradient);
      }
    </style>
    <clipPath id="clip-path">
      <path id="Path_2" data-name="Path 2" class="cls-1" d="M.576,1.774A.923.923,0,0,1,1.787.56L21.92,9.175a.922.922,0,0,1,0,1.7l-20.157,8.6A.923.923,0,0,1,.549,18.266L3.422,11.5a.923.923,0,0,1,.8-.561l2.245-.109a.922.922,0,0,0,.012-1.842L4.2,8.851a.923.923,0,0,1-.79-.554Z" transform="translate(-0.473 -0.483)"/>
    </clipPath>
    <linearGradient id="linear-gradient" x1="0.748" y1="0.265" x2="0" y2="0.772" gradientUnits="objectBoundingBox">
      <stop offset="0" stop-color="#ff8960"/>
      <stop offset="1" stop-color="#ff62a5"/>
    </linearGradient>
  </defs>
  <g class="cls-2">
    <path id="Fill_1" data-name="Fill 1" class="cls-3" d="M9.226,0A8.863,8.863,0,0,0,1.267,4.727L0,2.942l.426,5.04,4.635-.718-2.18-.928A7.229,7.229,0,0,1,9.226,2.308a6.914,6.914,0,0,1,0,13.828,6.748,6.748,0,0,1-5.19-2.419l-1.728,1.5a8.989,8.989,0,0,0,6.918,3.23A9.222,9.222,0,0,0,9.226,0" transform="translate(1.941 -0.055)"/>
    <g id="color_primary" data-name="color/primary" transform="translate(-3.059 -4.666)">
      <rect id="color_primary_background" data-name="color/primary background" class="cls-4" width="30" height="27.667"/>
      <rect id="color_primary-2" data-name="color/primary" class="cls-5" width="30" height="27.667"/>
    </g>
  </g>
</svg>
