<svg xmlns="http://www.w3.org/2000/svg" width="22" height="22" viewBox="0 0 22 22">
  <defs>
    <style>
      .cls-1 {
        fill: #aaa;
      }
    </style>
  </defs>
  <path id="_2cols" data-name="2cols" class="cls-1" d="M20.166,22h-5.5a1.835,1.835,0,0,1-1.833-1.833v-5.5a1.835,1.835,0,0,1,1.833-1.833h5.5A1.835,1.835,0,0,1,22,14.666v5.5A1.835,1.835,0,0,1,20.166,22ZM7.333,22h-5.5A1.835,1.835,0,0,1,0,20.166v-5.5a1.835,1.835,0,0,1,1.833-1.833h5.5a1.835,1.835,0,0,1,1.833,1.833v5.5A1.835,1.835,0,0,1,7.333,22ZM20.166,9.167h-5.5a1.835,1.835,0,0,1-1.833-1.833v-5.5A1.835,1.835,0,0,1,14.666,0h5.5A1.835,1.835,0,0,1,22,1.833v5.5A1.835,1.835,0,0,1,20.166,9.167Zm-12.833,0h-5.5A1.835,1.835,0,0,1,0,7.333v-5.5A1.835,1.835,0,0,1,1.833,0h5.5A1.835,1.835,0,0,1,9.167,1.833v5.5A1.835,1.835,0,0,1,7.333,9.167Z" transform="translate(0 0)"/>
</svg>
