<svg xmlns="http://www.w3.org/2000/svg" xmlns:xlink="http://www.w3.org/1999/xlink" width="23" height="23" viewBox="0 0 23 23">
  <defs>
    <clipPath id="clip-path">
      <path id="Shape" d="M11.5,23A11.5,11.5,0,1,1,23,11.5,11.513,11.513,0,0,1,11.5,23Zm0-14.376A2.879,2.879,0,0,0,8.625,11.5a.824.824,0,0,0,.009.108c0,.027.007.054.009.082L7.529,13.476,5.859,16.152a.712.712,0,0,0,.1.888.727.727,0,0,0,.509.21.714.714,0,0,0,.382-.11l2.676-1.67,1.786-1.114.07.008a.865.865,0,0,0,.118.011A2.878,2.878,0,0,0,14.375,11.5a.864.864,0,0,0-.011-.118c0-.023-.006-.046-.008-.07L15.47,9.527l1.67-2.677a.719.719,0,0,0-.991-.99L13.474,7.53,11.687,8.645l-.071-.009A.816.816,0,0,0,11.5,8.625Zm0,4.313A1.437,1.437,0,1,1,12.938,11.5,1.439,1.439,0,0,1,11.5,12.938Z" transform="translate(4 4)" stroke="#fff" stroke-linecap="round" stroke-width="1"/>
    </clipPath>
  </defs>
  <g transform="translate(-4 -4)">
    <g id="Shape-2" data-name="Shape" transform="translate(4 4)" stroke-linecap="round">
      <path d="M 11.50020027160645 22.50040054321289 C 5.434670448303223 22.50040054321289 0.5000002980232239 17.56573104858398 0.5000002980232239 11.50020027160645 C 0.5000002980232239 5.434670448303223 5.434670448303223 0.5000002980232239 11.50020027160645 0.5000002980232239 C 17.56573104858398 0.5000002980232239 22.50040054321289 5.434670448303223 22.50040054321289 11.50020027160645 C 22.50040054321289 17.56573104858398 17.56573104858398 22.50040054321289 11.50020027160645 22.50040054321289 Z M 8.127312660217285 11.57156276702881 L 7.104310035705566 13.21100997924805 L 5.434760093688965 15.88769054412842 C 5.131320476531982 16.36886024475098 5.201300144195557 16.98920059204102 5.606250286102295 17.39414978027344 C 5.834480285644531 17.62091064453125 6.148260116577148 17.75029945373535 6.468300342559814 17.75029945373535 C 6.698600292205811 17.75029945373535 6.922800064086914 17.68567085266113 7.116650104522705 17.56340026855469 L 9.790380477905273 15.8942403793335 L 11.42897319793701 14.87228488922119 C 11.45135116577148 14.87382316589355 11.47517490386963 14.87480068206787 11.50020027160645 14.87480068206787 C 13.36096000671387 14.87480068206787 14.87480068206787 13.36096000671387 14.87480068206787 11.50020027160645 C 14.87480068206787 11.47520351409912 14.87382793426514 11.4514217376709 14.8722972869873 11.42910003662109 L 15.89422988891602 9.792190551757813 L 17.56472015380859 7.114550113677979 C 17.86848449707031 6.629759311676025 17.79721260070801 6.010639190673828 17.39108467102051 5.608575344085693 C 17.16131973266602 5.377958297729492 16.85494041442871 5.25100040435791 16.5280704498291 5.25100040435791 C 16.29844093322754 5.25100040435791 16.07518005371094 5.315410137176514 15.88242053985596 5.437270164489746 L 13.20911979675293 7.106160163879395 L 11.57177257537842 8.127339363098145 C 11.54929351806641 8.125723838806152 11.52536010742188 8.124700546264648 11.50020027160645 8.124700546264648 C 9.63893985748291 8.124700546264648 8.124700546264648 9.63893985748291 8.124700546264648 11.50020027160645 C 8.124700546264648 11.52537822723389 8.125728607177734 11.54926490783691 8.127312660217285 11.57156276702881 Z M 11.50020027160645 12.4375 C 10.98336982727051 12.4375 10.56290054321289 12.01703071594238 10.56290054321289 11.50020027160645 C 10.56290054321289 10.98336982727051 10.98336982727051 10.56290054321289 11.50020027160645 10.56290054321289 C 12.01703071594238 10.56290054321289 12.4375 10.98336982727051 12.4375 11.50020027160645 C 12.4375 12.01703071594238 12.01703071594238 12.4375 11.50020027160645 12.4375 Z" stroke="none"/>
      <path d="M 11.50020027160645 22.00040054321289 C 17.29002952575684 22.00040054321289 22.00040054321289 17.29002952575684 22.00040054321289 11.50020027160645 C 22.00040054321289 5.710370063781738 17.29002952575684 1.000000238418579 11.50020027160645 1.000000238418579 C 5.710370063781738 1.000000238418579 1.000000238418579 5.710370063781738 1.000000238418579 11.50020027160645 C 1.000000238418579 17.29002952575684 5.710370063781738 22.00040054321289 11.50020027160645 22.00040054321289 M 7.625298500061035 11.43159198760986 C 7.661698341369629 9.348940849304199 9.349220275878906 7.661487102508545 11.43192100524902 7.625293254852295 L 12.94434070587158 6.682030200958252 L 15.61833572387695 5.012694358825684 C 15.89044570922852 4.841480255126953 16.20494842529297 4.75100040435791 16.5280704498291 4.75100040435791 C 16.98850631713867 4.75100040435791 17.42031860351563 4.929909229278564 17.74450874328613 5.254883766174316 C 18.31665992736816 5.82282543182373 18.4169979095459 6.696045875549316 17.98892974853516 7.379210472106934 L 16.318359375 10.05698013305664 L 15.374192237854 11.56932640075684 C 15.3375997543335 13.65118217468262 13.6509428024292 15.33781051635742 11.56903839111328 15.3741979598999 L 10.05516052246094 16.3183708190918 L 7.383390426635742 17.98629951477051 C 7.109580039978027 18.15900993347168 6.793150424957275 18.25029945373535 6.468300342559814 18.25029945373535 C 6.017250061035156 18.25029945373535 5.575020313262939 18.06795120239258 5.252690315246582 17.74771118164063 C 4.681460380554199 17.17646980285645 4.582950115203857 16.30107116699219 5.010520458221436 15.62307071685791 L 6.680120468139648 12.94632053375244 L 7.625298500061035 11.43159198760986 M 11.50020027160645 11.9375 C 11.74133014678955 11.9375 11.9375 11.74133014678955 11.9375 11.50020027160645 C 11.9375 11.25907039642334 11.74133014678955 11.06290054321289 11.50020027160645 11.06290054321289 C 11.25907039642334 11.06290054321289 11.06290054321289 11.25907039642334 11.06290054321289 11.50020027160645 C 11.06290054321289 11.74133014678955 11.25907039642334 11.9375 11.50020027160645 11.9375 M 11.50020027160645 23.00040054321289 C 5.158970355987549 23.00040054321289 2.716064386731887e-07 17.8414306640625 2.716064386731887e-07 11.50020027160645 C 2.716064386731887e-07 5.158970355987549 5.158970355987549 2.716064386731887e-07 11.50020027160645 2.716064386731887e-07 C 17.8414306640625 2.716064386731887e-07 23.00040054321289 5.158970355987549 23.00040054321289 11.50020027160645 C 23.00040054321289 17.8414306640625 17.8414306640625 23.00040054321289 11.50020027160645 23.00040054321289 Z M 11.50020027160645 8.624700546264648 C 9.914640426635742 8.624700546264648 8.624700546264648 9.914640426635742 8.624700546264648 11.50020027160645 C 8.624700546264648 11.53706073760986 8.629440307617188 11.57310009002686 8.63401985168457 11.60796070098877 C 8.637590408325195 11.6351203918457 8.64115047454834 11.66219043731689 8.6427001953125 11.69010066986084 L 7.528500080108643 13.47570037841797 L 5.859000205993652 16.15229988098145 C 5.679680347442627 16.43666076660156 5.721140384674072 16.80194091796875 5.959800243377686 17.04059982299805 C 6.093940258026123 17.17387008666992 6.279280185699463 17.25029945373535 6.468300342559814 17.25029945373535 C 6.604060173034668 17.25029945373535 6.736020088195801 17.21232986450195 6.849900245666504 17.14050102233887 L 9.525600433349609 15.47010040283203 L 11.31210041046143 14.35589981079102 C 11.33569049835205 14.35793018341064 11.35875988006592 14.36108016967773 11.38186073303223 14.3642406463623 C 11.42002010345459 14.36945056915283 11.45919990539551 14.37480068206787 11.50020027160645 14.37480068206787 C 13.08526039123535 14.37480068206787 14.37480068206787 13.08526039123535 14.37480068206787 11.50020027160645 C 14.37480068206787 11.45919990539551 14.36945056915283 11.42002010345459 14.36428070068359 11.38214015960693 C 14.36108016967773 11.35875988006592 14.35793018341064 11.33568000793457 14.35589981079102 11.31210041046143 L 15.47010040283203 9.527400016784668 L 17.14050102233887 6.849900245666504 C 17.31990051269531 6.563590049743652 17.27770042419434 6.198680400848389 17.03790092468262 5.962500095367432 C 16.90253067016602 5.826110363006592 16.72147941589355 5.75100040435791 16.5280704498291 5.75100040435791 C 16.39315986633301 5.75100040435791 16.26229095458984 5.788660049438477 16.14960098266602 5.85990047454834 L 13.47389984130859 7.530300140380859 L 11.68739986419678 8.644500732421875 C 11.66374015808105 8.642439842224121 11.64033985137939 8.639080047607422 11.61686992645264 8.635700225830078 C 11.57915019989014 8.630280494689941 11.54028034210205 8.624700546264648 11.50020027160645 8.624700546264648 Z M 11.50020027160645 12.9375 C 10.70767021179199 12.9375 10.06290054321289 12.2927303314209 10.06290054321289 11.50020027160645 C 10.06290054321289 10.70767021179199 10.70767021179199 10.06290054321289 11.50020027160645 10.06290054321289 C 12.2927303314209 10.06290054321289 12.9375 10.70767021179199 12.9375 11.50020027160645 C 12.9375 12.2927303314209 12.2927303314209 12.9375 11.50020027160645 12.9375 Z" stroke="none" fill="#fff"/>
    </g>
    <g clip-path="url(#clip-path)">
      <g id="color_primary" data-name="color/primary">
        <g id="color_Title-text-light-gray" data-name="color/Title-text-light-gray" fill="#dad9e2" stroke="#fff" stroke-linecap="round" stroke-width="1">
          <rect width="30" height="30" stroke="none"/>
          <rect x="0.5" y="0.5" width="29" height="29" fill="none"/>
        </g>
        <g id="color_Title-text-light-gray-2" data-name="color/Title-text-light-gray" fill="#c1c0c9" stroke="#fff" stroke-linecap="round" stroke-width="1">
          <rect width="30" height="30" stroke="none"/>
          <rect x="0.5" y="0.5" width="29" height="29" fill="none"/>
        </g>
      </g>
    </g>
  </g>
</svg>
