<svg xmlns="http://www.w3.org/2000/svg" xmlns:xlink="http://www.w3.org/1999/xlink" width="23" height="19.961" viewBox="0 0 23 19.961">
  <defs>
    <clipPath id="clip-path">
      <path id="Messages" d="M11.47,19.961a.993.993,0,0,1-.707-.292L8.78,17.687H4.218C1.892,17.687,0,16.077,0,14.1V3.6C0,1.616,1.892,0,4.218,0H18.783a4.578,4.578,0,0,1,2.982,1.055A3.335,3.335,0,0,1,23,3.6V14.1c0,1.978-1.892,3.586-4.218,3.586l-4.623,0-1.982,1.982A.994.994,0,0,1,11.47,19.961ZM17.463,6.968a1.652,1.652,0,1,0,1.725,1.651A1.691,1.691,0,0,0,17.463,6.968Zm-6.052,0a1.652,1.652,0,1,0,1.724,1.651A1.691,1.691,0,0,0,11.41,6.968Zm-6.053,0a1.652,1.652,0,1,0,0,3.3,1.652,1.652,0,1,0,0-3.3Z" transform="translate(4 5)" stroke="#c1c0c9" stroke-linecap="round" stroke-width="1"/>
    </clipPath>
  </defs>
  <g transform="translate(-4 -5)">
    <g id="Messages-2" data-name="Messages" transform="translate(4 5)" stroke-linecap="round">
      <path d="M 11.46960067749023 19.46109962463379 C 11.33618068695068 19.46109962463379 11.21084022521973 19.40922927856445 11.11665058135986 19.31505012512207 L 9.133870124816895 17.33316993713379 L 8.98744010925293 17.18680000305176 L 8.780400276184082 17.18680000305176 L 4.218300342559814 17.18680000305176 C 2.168020486831665 17.18680000305176 0.5000005960464478 15.80179977416992 0.5000005960464478 14.09939956665039 L 0.5000005960464478 3.602699756622314 C 0.5000005960464478 1.891869783401489 2.168020486831665 0.4999998211860657 4.218300342559814 0.4999998211860657 L 18.78300094604492 0.4999998211860657 C 19.7899112701416 0.4999998211860657 20.73356056213379 0.8322998285293579 21.44009971618652 1.435699820518494 C 22.12421989440918 2.019919872283936 22.50077056884766 2.789429903030396 22.50040054321289 3.602469921112061 L 22.50040054321289 14.09850025177002 C 22.50040054321289 15.80039978027344 20.8323802947998 17.18499946594238 18.78210067749023 17.18499946594238 C 18.78194046020508 17.18499946594238 16.00179100036621 17.18589973449707 14.15856075286865 17.18680000305176 L 13.9515905380249 17.18689918518066 L 13.80525016784668 17.33325004577637 L 11.82345104217529 19.31505012512207 C 11.72926044464111 19.40922927856445 11.60360050201416 19.46109962463379 11.46960067749023 19.46109962463379 Z M 17.46269989013672 6.467799663543701 C 16.23616027832031 6.467799663543701 15.23830032348633 7.432559967041016 15.23830032348633 8.618399620056152 C 15.23830032348633 9.803750038146973 16.23616027832031 10.76809978485107 17.46269989013672 10.76809978485107 C 18.68972969055176 10.76809978485107 19.6879997253418 9.803750038146973 19.6879997253418 8.618399620056152 C 19.6879997253418 7.432559967041016 18.68972969055176 6.467799663543701 17.46269989013672 6.467799663543701 Z M 11.41020011901855 6.467799663543701 C 10.18317031860352 6.467799663543701 9.184900283813477 7.432559967041016 9.184900283813477 8.618399620056152 C 9.184900283813477 9.803750038146973 10.18317031860352 10.76809978485107 11.41020011901855 10.76809978485107 C 12.63674068450928 10.76809978485107 13.63460063934326 9.803750038146973 13.63460063934326 8.618399620056152 C 13.63460063934326 7.432559967041016 12.63674068450928 6.467799663543701 11.41020011901855 6.467799663543701 Z M 5.356800556182861 6.467799663543701 C 4.129770755767822 6.467799663543701 3.131500482559204 7.432559967041016 3.131500482559204 8.618399620056152 C 3.131500482559204 9.803750038146973 4.129770755767822 10.76809978485107 5.356800556182861 10.76809978485107 C 6.5838303565979 10.76809978485107 7.582100391387939 9.803750038146973 7.582100391387939 8.618399620056152 C 7.582100391387939 7.432559967041016 6.5838303565979 6.467799663543701 5.356800556182861 6.467799663543701 Z" stroke="none"/>
      <path d="M 11.46989059448242 18.96149063110352 L 13.45169067382813 16.97969055175781 L 13.74438095092773 16.6870002746582 L 14.15831089019775 16.68680000305176 C 16.0015811920166 16.68589973449707 18.78178024291992 16.68499946594238 18.78210067749023 16.68499946594238 C 20.55668067932129 16.68499946594238 22.00040054321289 15.52470016479492 22.00040054321289 14.09850025177002 L 22.00040054321289 3.602239847183228 C 22.00069999694824 2.937939882278442 21.68641090393066 2.303549766540527 21.11540031433105 1.815919756889343 C 20.49930000305176 1.289759755134583 19.67097091674805 0.9999998211860657 18.78300094604492 0.9999998211860657 L 4.218300342559814 0.9999998211860657 C 2.443720579147339 0.9999998211860657 1.000000596046448 2.167569875717163 1.000000596046448 3.602699756622314 L 1.000000596046448 14.09939956665039 C 1.000000596046448 15.52610015869141 2.443720579147339 16.68680000305176 4.218300342559814 16.68680000305176 L 8.780400276184082 16.68680000305176 L 9.194480895996094 16.68680000305176 L 9.487350463867188 16.97953033447266 L 11.46744060516357 18.96098899841309 C 11.46745014190674 18.96098899841309 11.46813011169434 18.96109962463379 11.46960067749023 18.96109962463379 L 11.46989059448242 18.96149063110352 M 17.46269989013672 5.967799663543701 C 18.96544075012207 5.967799663543701 20.1879997253418 7.15684986114502 20.1879997253418 8.618399620056152 C 20.1879997253418 10.07944965362549 18.96544075012207 11.26809978485107 17.46269989013672 11.26809978485107 C 15.9604606628418 11.26809978485107 14.73830032348633 10.07944965362549 14.73830032348633 8.618399620056152 C 14.73830032348633 7.15684986114502 15.9604606628418 5.967799663543701 17.46269989013672 5.967799663543701 M 11.41020011901855 5.967799663543701 C 12.91244029998779 5.967799663543701 14.13460063934326 7.15684986114502 14.13460063934326 8.618399620056152 C 14.13460063934326 10.07944965362549 12.91244029998779 11.26809978485107 11.41020011901855 11.26809978485107 C 9.90746021270752 11.26809978485107 8.684900283813477 10.07944965362549 8.684900283813477 8.618399620056152 C 8.684900283813477 7.15684986114502 9.90746021270752 5.967799663543701 11.41020011901855 5.967799663543701 M 5.356800556182861 5.967799663543701 C 6.859540462493896 5.967799663543701 8.082100868225098 7.15684986114502 8.082100868225098 8.618399620056152 C 8.082100868225098 10.07944965362549 6.859540462493896 11.26809978485107 5.356800556182861 11.26809978485107 C 3.854060649871826 11.26809978485107 2.631500482559204 10.07944965362549 2.631500482559204 8.618399620056152 C 2.631500482559204 7.15684986114502 3.854060649871826 5.967799663543701 5.356800556182861 5.967799663543701 M 11.46960067749023 19.96109962463379 C 11.20262050628662 19.96109962463379 10.95172023773193 19.85721969604492 10.76310062408447 19.66860008239746 L 8.780400276184082 17.68680000305176 L 4.218300342559814 17.68680000305176 C 1.892320513725281 17.68680000305176 5.703735155293543e-07 16.07749938964844 5.703735155293543e-07 14.09939956665039 L 5.703735155293543e-07 3.602699756622314 C 5.703735155293543e-07 1.616159796714783 1.892320513725281 -1.87683099284186e-07 4.218300342559814 -1.87683099284186e-07 L 18.78300094604492 -1.87683099284186e-07 C 19.90884971618652 -1.87683099284186e-07 20.96780967712402 0.3748398125171661 21.76481056213379 1.055479764938354 C 22.56203079223633 1.736289858818054 23.00084114074707 2.640909910202026 23.00040054321289 3.602699756622314 L 23.00040054321289 14.09850025177002 C 23.00040054321289 16.07609939575195 21.10807991027832 17.68499946594238 18.78210067749023 17.68499946594238 C 18.78210067749023 17.68499946594238 16.00200080871582 17.68589973449707 14.15880012512207 17.68680000305176 L 12.17700099945068 19.66860008239746 C 11.98838043212891 19.85721969604492 11.73716068267822 19.96109962463379 11.46960067749023 19.96109962463379 Z M 17.46269989013672 6.967799663543701 C 16.51185989379883 6.967799663543701 15.73830032348633 7.708259582519531 15.73830032348633 8.618399620056152 C 15.73830032348633 9.528049468994141 16.51185989379883 10.26809978485107 17.46269989013672 10.26809978485107 C 18.41403007507324 10.26809978485107 19.1879997253418 9.528049468994141 19.1879997253418 8.618399620056152 C 19.1879997253418 7.708259582519531 18.41403007507324 6.967799663543701 17.46269989013672 6.967799663543701 Z M 11.41020011901855 6.967799663543701 C 10.45887088775635 6.967799663543701 9.684900283813477 7.708259582519531 9.684900283813477 8.618399620056152 C 9.684900283813477 9.528049468994141 10.45887088775635 10.26809978485107 11.41020011901855 10.26809978485107 C 12.36104011535645 10.26809978485107 13.13460063934326 9.528049468994141 13.13460063934326 8.618399620056152 C 13.13460063934326 7.708259582519531 12.36104011535645 6.967799663543701 11.41020011901855 6.967799663543701 Z M 5.356800556182861 6.967799663543701 C 4.405470371246338 6.967799663543701 3.631500482559204 7.708259582519531 3.631500482559204 8.618399620056152 C 3.631500482559204 9.528049468994141 4.405470371246338 10.26809978485107 5.356800556182861 10.26809978485107 C 6.308130741119385 10.26809978485107 7.082100391387939 9.528049468994141 7.082100391387939 8.618399620056152 C 7.082100391387939 7.708259582519531 6.308130741119385 6.967799663543701 5.356800556182861 6.967799663543701 Z" stroke="none" fill="#c1c0c9"/>
    </g>
    <g clip-path="url(#clip-path)">
      <g id="color_primary" data-name="color/primary">
        <g id="color_Title-text-light-gray" data-name="color/Title-text-light-gray" fill="#dad9e2" stroke="#c1c0c9" stroke-linecap="round" stroke-width="1">
          <rect width="30" height="30" stroke="none"/>
          <rect x="0.5" y="0.5" width="29" height="29" fill="none"/>
        </g>
        <g id="color_Title-text-light-gray-2" data-name="color/Title-text-light-gray" fill="#c1c0c9" stroke="#c1c0c9" stroke-linecap="round" stroke-width="1">
          <rect width="30" height="30" stroke="none"/>
          <rect x="0.5" y="0.5" width="29" height="29" fill="none"/>
        </g>
      </g>
    </g>
  </g>
</svg>
