<svg xmlns="http://www.w3.org/2000/svg" xmlns:xlink="http://www.w3.org/1999/xlink" width="23.047" height="23.004" viewBox="0 0 23.047 23.004">
  <defs>
    <clipPath id="clip-path">
      <path id="Profile" d="M20.209,22H1.924a2.252,2.252,0,0,1-1.778-.668c-.293-.405-.089-1.225.112-1.683l.492-1.121a23.209,23.209,0,0,1,2.908-4.806,2.211,2.211,0,0,1,2.814-.483A7.494,7.494,0,0,1,7.8,14.415a4.327,4.327,0,0,0,2.9,1.012h.908a4.321,4.321,0,0,0,2.9-1.012,7.988,7.988,0,0,1,1.314-1.208,2.021,2.021,0,0,1,2.619.51,20.183,20.183,0,0,1,2.776,4.862l.5,1.1c.209.454.422,1.27.137,1.68A1.871,1.871,0,0,1,20.343,22C20.259,22,20.209,22,20.209,22ZM5.248,6.143A5.862,5.862,0,0,1,10.975,0,5.863,5.863,0,0,1,16.7,6.143c0,3.529-2.565,6.392-5.729,6.392S5.248,9.672,5.248,6.143Z" transform="translate(4 4)" fill="#9b9b9b" stroke="#c1c0c9" stroke-width="1"/>
    </clipPath>
  </defs>
  <g transform="translate(-3.477 -3.5)">
    <path id="Profile-2" data-name="Profile" d="M20.209,22H1.924a2.252,2.252,0,0,1-1.778-.668c-.293-.405-.089-1.225.112-1.683l.492-1.121a23.209,23.209,0,0,1,2.908-4.806,2.211,2.211,0,0,1,2.814-.483A7.494,7.494,0,0,1,7.8,14.415a4.327,4.327,0,0,0,2.9,1.012h.908a4.321,4.321,0,0,0,2.9-1.012,7.988,7.988,0,0,1,1.314-1.208,2.021,2.021,0,0,1,2.619.51,20.183,20.183,0,0,1,2.776,4.862l.5,1.1c.209.454.422,1.27.137,1.68A1.871,1.871,0,0,1,20.343,22C20.259,22,20.209,22,20.209,22ZM5.248,6.143A5.862,5.862,0,0,1,10.975,0,5.863,5.863,0,0,1,16.7,6.143c0,3.529-2.565,6.392-5.729,6.392S5.248,9.672,5.248,6.143Z" transform="translate(4 4)" fill="#9b9b9b" stroke="#c1c0c9" stroke-width="1"/>
    <g clip-path="url(#clip-path)">
      <g id="color_primary" data-name="color/primary">
        <rect id="color_Title-text-light-gray" data-name="color/Title-text-light-gray" width="30" height="30" fill="#dad9e2" stroke="#c1c0c9" stroke-width="1"/>
        <rect id="color_Title-text-light-gray-2" data-name="color/Title-text-light-gray" width="30" height="30" fill="#c1c0c9" stroke="#c1c0c9" stroke-width="1"/>
      </g>
    </g>
  </g>
</svg>
