<svg id="Videos" xmlns="http://www.w3.org/2000/svg" xmlns:xlink="http://www.w3.org/1999/xlink" width="26" height="26" viewBox="0 0 26 26">
  <defs>
    <linearGradient id="linear-gradient" x1="0.5" x2="0.5" y2="1" gradientUnits="objectBoundingBox">
      <stop offset="0" stop-color="#fc4e00"/>
      <stop offset="1" stop-color="#fab83b"/>
    </linearGradient>
  </defs>
  <path id="Oval" d="M13,0A13,13,0,1,1,0,13,13,13,0,0,1,13,0Z" transform="translate(0 0)" fill="url(#linear-gradient)"/>
  <path id="Shape" d="M9.114,4.978.908.094A.619.619,0,0,0,.587,0,.588.588,0,0,0,0,.59H0v10.14H0a.588.588,0,0,0,.584.59.674.674,0,0,0,.33-.1l8.2-4.878a.887.887,0,0,0,0-1.362Z" transform="translate(9.432 7.546)" fill="#fff"/>
</svg>
